<svg xmlns="http://www.w3.org/2000/svg" version="1.1" xmlns:xlink="http://www.w3.org/1999/xlink" xmlns:svgjs="http://svgjs.com/svgjs" width="1440" height="560" preserveAspectRatio="none" viewBox="0 0 1440 560"><g mask="url(&quot;#SvgjsMask1488&quot;)" fill="none"><rect width="1440" height="560" x="0" y="0" fill="rgba(14, 19, 22, 1)"></rect><path d="M183.54 431.73L248.49 469.23L248.49 544.23L183.54 581.73L118.58 544.23L118.58 469.23zM378.4 544.23L443.35 581.73L443.35 656.73L378.4 694.23L313.44 656.73L313.44 581.73zM573.26 206.73L638.21 244.23L638.21 319.23L573.26 356.73L508.31 319.23L508.31 244.23zM703.17 206.73L768.12 244.23L768.12 319.23L703.17 356.73L638.21 319.23L638.21 244.23zM768.12 544.23L833.08 581.73L833.08 656.73L768.12 694.23L703.17 656.73L703.17 581.73zM833.07 -18.27L898.03 19.23L898.03 94.23L833.07 131.73L768.12 94.23L768.12 19.23zM898.03 94.23L962.98 131.73L962.98 206.73L898.03 244.23L833.07 206.73L833.07 131.73zM898.03 544.23L962.98 581.73L962.98 656.73L898.03 694.23L833.07 656.73L833.07 581.73zM1157.84 94.23L1222.8 131.73L1222.8 206.73L1157.84 244.23L1092.89 206.73L1092.89 131.73zM1222.8 -18.27L1287.75 19.23L1287.75 94.23L1222.8 131.73L1157.84 94.23L1157.84 19.23zM1287.75 94.23L1352.7 131.73L1352.7 206.73L1287.75 244.23L1222.8 206.73L1222.8 131.73zM1352.71 -18.27L1417.66 19.23L1417.66 94.23L1352.71 131.73L1287.75 94.23L1287.75 19.23zM1417.66 94.23L1482.61 131.73L1482.61 206.73L1417.66 244.23L1352.71 206.73L1352.71 131.73zM1352.71 431.73L1417.66 469.23L1417.66 544.23L1352.71 581.73L1287.75 544.23L1287.75 469.23zM1417.66 544.23L1482.61 581.73L1482.61 656.73L1417.66 694.23L1352.71 656.73L1352.71 581.73zM1547.57 544.23L1612.52 581.73L1612.52 656.73L1547.57 694.23L1482.61 656.73L1482.61 581.73z" stroke="#03305d" stroke-width="2"></path><path d="M176.04 431.73 a7.5 7.5 0 1 0 15 0 a7.5 7.5 0 1 0 -15 0zM240.99 469.23 a7.5 7.5 0 1 0 15 0 a7.5 7.5 0 1 0 -15 0zM240.99 544.23 a7.5 7.5 0 1 0 15 0 a7.5 7.5 0 1 0 -15 0zM176.04 581.73 a7.5 7.5 0 1 0 15 0 a7.5 7.5 0 1 0 -15 0zM111.08 544.23 a7.5 7.5 0 1 0 15 0 a7.5 7.5 0 1 0 -15 0zM111.08 469.23 a7.5 7.5 0 1 0 15 0 a7.5 7.5 0 1 0 -15 0zM370.9 544.23 a7.5 7.5 0 1 0 15 0 a7.5 7.5 0 1 0 -15 0zM435.85 581.73 a7.5 7.5 0 1 0 15 0 a7.5 7.5 0 1 0 -15 0zM435.85 656.73 a7.5 7.5 0 1 0 15 0 a7.5 7.5 0 1 0 -15 0zM370.9 694.23 a7.5 7.5 0 1 0 15 0 a7.5 7.5 0 1 0 -15 0zM305.94 656.73 a7.5 7.5 0 1 0 15 0 a7.5 7.5 0 1 0 -15 0zM305.94 581.73 a7.5 7.5 0 1 0 15 0 a7.5 7.5 0 1 0 -15 0zM565.76 206.73 a7.5 7.5 0 1 0 15 0 a7.5 7.5 0 1 0 -15 0zM630.71 244.23 a7.5 7.5 0 1 0 15 0 a7.5 7.5 0 1 0 -15 0zM630.71 319.23 a7.5 7.5 0 1 0 15 0 a7.5 7.5 0 1 0 -15 0zM565.76 356.73 a7.5 7.5 0 1 0 15 0 a7.5 7.5 0 1 0 -15 0zM500.81 319.23 a7.5 7.5 0 1 0 15 0 a7.5 7.5 0 1 0 -15 0zM500.81 244.23 a7.5 7.5 0 1 0 15 0 a7.5 7.5 0 1 0 -15 0zM695.67 206.73 a7.5 7.5 0 1 0 15 0 a7.5 7.5 0 1 0 -15 0zM760.62 244.23 a7.5 7.5 0 1 0 15 0 a7.5 7.5 0 1 0 -15 0zM760.62 319.23 a7.5 7.5 0 1 0 15 0 a7.5 7.5 0 1 0 -15 0zM695.67 356.73 a7.5 7.5 0 1 0 15 0 a7.5 7.5 0 1 0 -15 0zM760.62 544.23 a7.5 7.5 0 1 0 15 0 a7.5 7.5 0 1 0 -15 0zM825.58 581.73 a7.5 7.5 0 1 0 15 0 a7.5 7.5 0 1 0 -15 0zM825.58 656.73 a7.5 7.5 0 1 0 15 0 a7.5 7.5 0 1 0 -15 0zM760.62 694.23 a7.5 7.5 0 1 0 15 0 a7.5 7.5 0 1 0 -15 0zM695.67 656.73 a7.5 7.5 0 1 0 15 0 a7.5 7.5 0 1 0 -15 0zM695.67 581.73 a7.5 7.5 0 1 0 15 0 a7.5 7.5 0 1 0 -15 0zM825.57 -18.27 a7.5 7.5 0 1 0 15 0 a7.5 7.5 0 1 0 -15 0zM890.53 19.23 a7.5 7.5 0 1 0 15 0 a7.5 7.5 0 1 0 -15 0zM890.53 94.23 a7.5 7.5 0 1 0 15 0 a7.5 7.5 0 1 0 -15 0zM825.57 131.73 a7.5 7.5 0 1 0 15 0 a7.5 7.5 0 1 0 -15 0zM760.62 94.23 a7.5 7.5 0 1 0 15 0 a7.5 7.5 0 1 0 -15 0zM760.62 19.23 a7.5 7.5 0 1 0 15 0 a7.5 7.5 0 1 0 -15 0zM955.48 131.73 a7.5 7.5 0 1 0 15 0 a7.5 7.5 0 1 0 -15 0zM955.48 206.73 a7.5 7.5 0 1 0 15 0 a7.5 7.5 0 1 0 -15 0zM890.53 244.23 a7.5 7.5 0 1 0 15 0 a7.5 7.5 0 1 0 -15 0zM825.57 206.73 a7.5 7.5 0 1 0 15 0 a7.5 7.5 0 1 0 -15 0zM890.53 544.23 a7.5 7.5 0 1 0 15 0 a7.5 7.5 0 1 0 -15 0zM955.48 581.73 a7.5 7.5 0 1 0 15 0 a7.5 7.5 0 1 0 -15 0zM955.48 656.73 a7.5 7.5 0 1 0 15 0 a7.5 7.5 0 1 0 -15 0zM890.53 694.23 a7.5 7.5 0 1 0 15 0 a7.5 7.5 0 1 0 -15 0zM825.57 656.73 a7.5 7.5 0 1 0 15 0 a7.5 7.5 0 1 0 -15 0zM825.57 581.73 a7.5 7.5 0 1 0 15 0 a7.5 7.5 0 1 0 -15 0zM1150.34 94.23 a7.5 7.5 0 1 0 15 0 a7.5 7.5 0 1 0 -15 0zM1215.3 131.73 a7.5 7.5 0 1 0 15 0 a7.5 7.5 0 1 0 -15 0zM1215.3 206.73 a7.5 7.5 0 1 0 15 0 a7.5 7.5 0 1 0 -15 0zM1150.34 244.23 a7.5 7.5 0 1 0 15 0 a7.5 7.5 0 1 0 -15 0zM1085.39 206.73 a7.5 7.5 0 1 0 15 0 a7.5 7.5 0 1 0 -15 0zM1085.39 131.73 a7.5 7.5 0 1 0 15 0 a7.5 7.5 0 1 0 -15 0zM1215.3 -18.27 a7.5 7.5 0 1 0 15 0 a7.5 7.5 0 1 0 -15 0zM1280.25 19.23 a7.5 7.5 0 1 0 15 0 a7.5 7.5 0 1 0 -15 0zM1280.25 94.23 a7.5 7.5 0 1 0 15 0 a7.5 7.5 0 1 0 -15 0zM1150.34 19.23 a7.5 7.5 0 1 0 15 0 a7.5 7.5 0 1 0 -15 0zM1345.2 131.73 a7.5 7.5 0 1 0 15 0 a7.5 7.5 0 1 0 -15 0zM1345.2 206.73 a7.5 7.5 0 1 0 15 0 a7.5 7.5 0 1 0 -15 0zM1280.25 244.23 a7.5 7.5 0 1 0 15 0 a7.5 7.5 0 1 0 -15 0zM1345.21 -18.27 a7.5 7.5 0 1 0 15 0 a7.5 7.5 0 1 0 -15 0zM1410.16 19.23 a7.5 7.5 0 1 0 15 0 a7.5 7.5 0 1 0 -15 0zM1410.16 94.23 a7.5 7.5 0 1 0 15 0 a7.5 7.5 0 1 0 -15 0zM1345.21 131.73 a7.5 7.5 0 1 0 15 0 a7.5 7.5 0 1 0 -15 0zM1475.11 131.73 a7.5 7.5 0 1 0 15 0 a7.5 7.5 0 1 0 -15 0zM1475.11 206.73 a7.5 7.5 0 1 0 15 0 a7.5 7.5 0 1 0 -15 0zM1410.16 244.23 a7.5 7.5 0 1 0 15 0 a7.5 7.5 0 1 0 -15 0zM1345.21 206.73 a7.5 7.5 0 1 0 15 0 a7.5 7.5 0 1 0 -15 0zM1345.21 431.73 a7.5 7.5 0 1 0 15 0 a7.5 7.5 0 1 0 -15 0zM1410.16 469.23 a7.5 7.5 0 1 0 15 0 a7.5 7.5 0 1 0 -15 0zM1410.16 544.23 a7.5 7.5 0 1 0 15 0 a7.5 7.5 0 1 0 -15 0zM1345.21 581.73 a7.5 7.5 0 1 0 15 0 a7.5 7.5 0 1 0 -15 0zM1280.25 544.23 a7.5 7.5 0 1 0 15 0 a7.5 7.5 0 1 0 -15 0zM1280.25 469.23 a7.5 7.5 0 1 0 15 0 a7.5 7.5 0 1 0 -15 0zM1475.11 581.73 a7.5 7.5 0 1 0 15 0 a7.5 7.5 0 1 0 -15 0zM1475.11 656.73 a7.5 7.5 0 1 0 15 0 a7.5 7.5 0 1 0 -15 0zM1410.16 694.23 a7.5 7.5 0 1 0 15 0 a7.5 7.5 0 1 0 -15 0zM1345.21 656.73 a7.5 7.5 0 1 0 15 0 a7.5 7.5 0 1 0 -15 0zM1540.07 544.23 a7.5 7.5 0 1 0 15 0 a7.5 7.5 0 1 0 -15 0zM1605.02 581.73 a7.5 7.5 0 1 0 15 0 a7.5 7.5 0 1 0 -15 0zM1605.02 656.73 a7.5 7.5 0 1 0 15 0 a7.5 7.5 0 1 0 -15 0zM1540.07 694.23 a7.5 7.5 0 1 0 15 0 a7.5 7.5 0 1 0 -15 0z" fill="#03305d"></path><path d="M255.94 51.33L299.25 76.33L299.25 126.33L255.94 151.33L212.64 126.33L212.64 76.33zM255.94 201.33L299.25 226.33L299.25 276.33L255.94 301.33L212.64 276.33L212.64 226.33zM255.94 351.33L299.25 376.33L299.25 426.33L255.94 451.33L212.64 426.33L212.64 376.33zM472.46 -23.67L515.76 1.33L515.76 51.33L472.46 76.33L429.15 51.33L429.15 1.33zM472.46 276.33L515.76 301.33L515.76 351.33L472.46 376.33L429.15 351.33L429.15 301.33zM602.36 201.33L645.66 226.33L645.66 276.33L602.36 301.33L559.06 276.33L559.06 226.33zM602.36 351.33L645.66 376.33L645.66 426.33L602.36 451.33L559.06 426.33L559.06 376.33zM775.57 51.33L818.88 76.33L818.88 126.33L775.57 151.33L732.27 126.33L732.27 76.33zM905.48 126.33L948.78 151.33L948.78 201.33L905.48 226.33L862.18 201.33L862.18 151.33zM948.78 201.33L992.09 226.33L992.09 276.33L948.78 301.33L905.48 276.33L905.48 226.33zM1121.99 51.33L1165.3 76.33L1165.3 126.33L1121.99 151.33L1078.69 126.33L1078.69 76.33zM1165.3 -23.67L1208.6 1.33L1208.6 51.33L1165.3 76.33L1121.99 51.33L1121.99 1.33zM1381.81 201.33L1425.11 226.33L1425.11 276.33L1381.81 301.33L1338.51 276.33L1338.51 226.33zM1425.11 -23.67L1468.41 1.33L1468.41 51.33L1425.11 76.33L1381.81 51.33L1381.81 1.33zM1468.41 51.33L1511.72 76.33L1511.72 126.33L1468.41 151.33L1425.11 126.33L1425.11 76.33zM1425.11 276.33L1468.41 301.33L1468.41 351.33L1425.11 376.33L1381.81 351.33L1381.81 301.33zM1468.41 501.33L1511.72 526.33L1511.72 576.33L1468.41 601.33L1425.11 576.33L1425.11 526.33z" stroke="rgba(6, 80, 156, 0.93)" stroke-width="2"></path></g><defs><mask id="SvgjsMask1488"><rect width="1440" height="560" fill="#ffffff"></rect></mask></defs></svg>