<svg xmlns="http://www.w3.org/2000/svg" version="1.1" xmlns:xlink="http://www.w3.org/1999/xlink" xmlns:svgjs="http://svgjs.com/svgjs" width="1440" height="560" preserveAspectRatio="none" viewBox="0 0 1440 560"><g mask="url('#SvgjsMask1005')" fill="none"><rect width="1440" height="560" x="0" y="0" fill="#0e2a47"></rect><path d="M270.75 671.86C424.48 671.86 569.08 654.63 885.36 652.48 1201.64 650.33 1331.25 378.97 1499.97 372.48" stroke="rgba(51,121,194,0.58)" stroke-width="2"></path><path d="M515.45 599.31C637.56 560.58 593.5 209.19 846.59 208.27 1099.68 207.35 1336.21 402.23 1508.87 404.27" stroke="rgba(51,121,194,0.58)" stroke-width="2"></path><path d="M104.99 640.52C298.1 631.82 431.34 311.14 800.96 303.66 1170.58 296.18 1318.27 142.33 1496.93 141.26" stroke="rgba(51,121,194,0.58)" stroke-width="2"></path><path d="M445.78 666.74C630.8 651.34 756.09 276.74 1077.16 275.75 1398.23 274.76 1545.9 431.38 1708.54 432.55" stroke="rgba(51,121,194,0.58)" stroke-width="2"></path><path d="M720.25 584.46C818.2 570.84 769.51 356.09 1032.92 342.18 1296.32 328.27 1490.78 105.49 1658.25 101.38" stroke="rgba(51,121,194,0.58)" stroke-width="2"></path></g><defs><mask id="SvgjsMask1005"><rect width="1440" height="560" fill="#ffffff"></rect></mask></defs></svg>